<svg width="200" height="227" viewBox="0 0 200 227" fill="none" xmlns="http://www.w3.org/2000/svg">
<rect width="200" height="227" fill="#1E1E1E"/>
<path d="M140.5 109C140.5 131.953 122.334 150.5 100 150.5C77.6655 150.5 59.5 131.953 59.5 109C59.5 86.0467 77.6655 67.5 100 67.5C122.334 67.5 140.5 86.0467 140.5 109Z" fill="url(#paint0_radial_5_2)" stroke="black" stroke-width="3"/>
<path d="M91 5C91 2.23858 93.2386 0 96 0H101C103.761 0 106 2.23858 106 5V54C106 56.7614 103.761 59 101 59H96C93.2386 59 91 56.7614 91 54V5Z" fill="url(#paint1_linear_5_2)"/>
<path d="M5 116C2.23858 116 0 113.761 0 111L0 106C0 103.239 2.23858 101 5 101H49C51.7614 101 54 103.239 54 106V111C54 113.761 51.7614 116 49 116H5Z" fill="url(#paint2_linear_5_2)"/>
<path d="M195 99C197.761 99 200 101.239 200 104V111C200 113.761 197.761 116 195 116H151C148.239 116 146 113.761 146 111V104C146 101.239 148.239 99 151 99H195Z" fill="url(#paint3_linear_5_2)"/>
<path d="M23.1255 42.1851C21.263 40.1463 21.263 36.8409 23.1255 34.8022L26.8563 30.7185C28.7189 28.6797 31.7386 28.6797 33.6012 30.7185L65.2671 65.3798C67.1296 67.4185 67.1296 70.7239 65.267 72.7626L61.5362 76.8464C59.6737 78.8851 56.6539 78.8851 54.7914 76.8464L23.1255 42.1851Z" fill="url(#paint4_linear_5_2)"/>
<path d="M163.433 30.7185C165.296 28.6797 168.316 28.6797 170.178 30.7185L173.909 34.8022C175.772 36.8409 175.772 40.1463 173.909 42.1851L142.243 76.8464C140.381 78.8851 137.361 78.8851 135.498 76.8464L131.767 72.7627C129.905 70.7239 129.905 67.4185 131.767 65.3798L163.433 30.7185Z" fill="url(#paint5_linear_5_2)"/>
<path d="M33.6012 182.252C31.7386 184.291 28.7189 184.291 26.8563 182.252L23.1255 178.168C21.263 176.129 21.263 172.824 23.1255 170.785L54.7914 136.124C56.6539 134.085 59.6737 134.085 61.5363 136.124L65.2671 140.208C67.1296 142.246 67.1296 145.552 65.2671 147.59L33.6012 182.252Z" fill="url(#paint6_linear_5_2)"/>
<path d="M176.378 170.785C178.241 172.824 178.241 176.129 176.378 178.168L172.647 182.252C170.785 184.291 167.765 184.29 165.903 182.252L134.237 147.59C132.374 145.552 132.374 142.246 134.237 140.208L137.967 136.124C139.83 134.085 142.85 134.085 144.712 136.124L176.378 170.785Z" fill="url(#paint7_linear_5_2)"/>
<path d="M61 168C61 161.925 65.9249 157 72 157H128C134.075 157 139 161.925 139 168H61Z" fill="black"/>
<path d="M61 200C61 193.925 65.9249 189 72 189H128C134.075 189 139 193.925 139 200H61Z" fill="black"/>
<path d="M61 185C61 178.373 66.3726 173 73 173H127C133.627 173 139 178.373 139 185H61Z" fill="black"/>
<path d="M28.04 218.84H21.68V226H20.56V212H21.68V217.74H28.04V212H29.16V226H28.04V218.84ZM40.4178 213.02L39.0778 212.98V212H41.5378V226H40.4178V213.02ZM58.4513 225.18C57.7579 225.86 56.7913 226.2 55.5513 226.2C54.8046 226.2 54.1113 226.06 53.4713 225.78C52.8313 225.5 52.3113 225.06 51.9113 224.46C51.5246 223.86 51.3313 223.113 51.3313 222.22V215.94C51.3313 215.007 51.4779 214.26 51.7713 213.7C52.0779 213.127 52.5113 212.667 53.0713 212.32C53.6579 211.987 54.3779 211.82 55.2313 211.82C56.2713 211.82 57.2113 212.04 58.0513 212.48L57.7313 213.24C56.9713 212.96 56.2513 212.82 55.5713 212.82C54.7579 212.82 54.0313 213.02 53.3913 213.42C52.7646 213.82 52.4513 214.6 52.4513 215.76V222.26C52.4513 223.153 52.7379 223.853 53.3113 224.36C53.8979 224.867 54.6379 225.12 55.5313 225.12C56.4379 225.12 57.1579 224.86 57.6913 224.34C58.2246 223.82 58.4913 223.133 58.4913 222.28V221.1H57.1713L56.7913 220H59.5513V226H58.7313L58.4513 225.18ZM76.8134 218.84H70.4534V226H69.3334V212H70.4534V217.74H76.8134V212H77.9334V226H76.8134V218.84ZM88.0913 212H89.2113V225H95.3113V226H88.0913V212ZM105 213.02L103.66 212.98V212H106.12V226H105V213.02ZM123.033 225.18C122.34 225.86 121.373 226.2 120.133 226.2C119.387 226.2 118.693 226.06 118.053 225.78C117.413 225.5 116.893 225.06 116.493 224.46C116.107 223.86 115.913 223.113 115.913 222.22V215.94C115.913 215.007 116.06 214.26 116.353 213.7C116.66 213.127 117.093 212.667 117.653 212.32C118.24 211.987 118.96 211.82 119.813 211.82C120.853 211.82 121.793 212.04 122.633 212.48L122.313 213.24C121.553 212.96 120.833 212.82 120.153 212.82C119.34 212.82 118.613 213.02 117.973 213.42C117.347 213.82 117.033 214.6 117.033 215.76V222.26C117.033 223.153 117.32 223.853 117.893 224.36C118.48 224.867 119.22 225.12 120.113 225.12C121.02 225.12 121.74 224.86 122.273 224.34C122.807 223.82 123.073 223.133 123.073 222.28V221.1H121.753L121.373 220H124.133V226H123.313L123.033 225.18ZM141.395 218.84H135.035V226H133.915V212H135.035V217.74H141.395V212H142.515V226H141.395V218.84ZM154.513 213H151.113V212H159.153V213H155.633V226H154.513V213ZM168.04 222.44C168.08 222.893 168.247 223.327 168.54 223.74C168.847 224.153 169.26 224.493 169.78 224.76C170.313 225.013 170.92 225.14 171.6 225.14C172.627 225.14 173.48 224.913 174.16 224.46C174.853 223.993 175.2 223.26 175.2 222.26C175.2 221.673 175.033 221.187 174.7 220.8C174.367 220.4 173.953 220.087 173.46 219.86C172.967 219.62 172.293 219.347 171.44 219.04C170.52 218.72 169.78 218.427 169.22 218.16C168.673 217.88 168.207 217.507 167.82 217.04C167.447 216.573 167.26 215.973 167.26 215.24C167.26 214.653 167.427 214.1 167.76 213.58C168.093 213.047 168.593 212.62 169.26 212.3C169.94 211.967 170.773 211.8 171.76 211.8C172.413 211.8 172.953 211.847 173.38 211.94C173.807 212.033 174.24 212.187 174.68 212.4L174.34 213.46C173.58 213.073 172.733 212.88 171.8 212.88C170.773 212.88 169.953 213.093 169.34 213.52C168.727 213.947 168.42 214.54 168.42 215.3C168.42 215.78 168.573 216.187 168.88 216.52C169.187 216.84 169.56 217.1 170 217.3C170.453 217.5 171.08 217.74 171.88 218.02C172.853 218.353 173.64 218.667 174.24 218.96C174.84 219.24 175.347 219.647 175.76 220.18C176.187 220.7 176.4 221.36 176.4 222.16C176.4 223.387 176.007 224.373 175.22 225.12C174.447 225.853 173.247 226.22 171.62 226.22C170.633 226.22 169.787 226.04 169.08 225.68C168.387 225.307 167.853 224.833 167.48 224.26C167.12 223.673 166.927 223.067 166.9 222.44H168.04Z" fill="black"/>
<defs>
<radialGradient id="paint0_radial_5_2" cx="0" cy="0" r="1" gradientUnits="userSpaceOnUse" gradientTransform="translate(100 109) rotate(90) scale(43 44.2105)">
<stop stop-color="#FFF700"/>
<stop offset="1" stop-color="#FF9500"/>
</radialGradient>
<linearGradient id="paint1_linear_5_2" x1="98.5" y1="0" x2="98.5" y2="59" gradientUnits="userSpaceOnUse">
<stop stop-color="#FFF600"/>
<stop offset="0.845" stop-color="#FF9500"/>
</linearGradient>
<linearGradient id="paint2_linear_5_2" x1="0" y1="108.5" x2="54" y2="108.5" gradientUnits="userSpaceOnUse">
<stop stop-color="#FFF600"/>
<stop offset="0.845" stop-color="#FF9500"/>
</linearGradient>
<linearGradient id="paint3_linear_5_2" x1="200" y1="107.5" x2="146" y2="107.5" gradientUnits="userSpaceOnUse">
<stop stop-color="#FFF600"/>
<stop offset="0.845" stop-color="#FF9500"/>
</linearGradient>
<linearGradient id="paint4_linear_5_2" x1="24.9909" y1="32.7603" x2="66.8639" y2="71.0147" gradientUnits="userSpaceOnUse">
<stop stop-color="#FFF600"/>
<stop offset="0.845" stop-color="#FF9500"/>
</linearGradient>
<linearGradient id="paint5_linear_5_2" x1="172.044" y1="32.7603" x2="130.171" y2="71.0147" gradientUnits="userSpaceOnUse">
<stop stop-color="#FFF600"/>
<stop offset="0.845" stop-color="#FF9500"/>
</linearGradient>
<linearGradient id="paint6_linear_5_2" x1="24.9909" y1="180.21" x2="66.8639" y2="141.956" gradientUnits="userSpaceOnUse">
<stop stop-color="#FFF600"/>
<stop offset="0.845" stop-color="#FF9500"/>
</linearGradient>
<linearGradient id="paint7_linear_5_2" x1="174.513" y1="180.21" x2="132.64" y2="141.956" gradientUnits="userSpaceOnUse">
<stop stop-color="#FFF600"/>
<stop offset="0.845" stop-color="#FF9500"/>
</linearGradient>
</defs>
</svg>
